# Blender 4.4.1
# www.blender.org
mtllib donut_super_lisse.mtl
o torus
v 0.501041 -0.127772 0.213011
v 0.537958 0.033184 0.225706
v 0.585991 0.037266 -0.000459
v 0.549258 -0.120284 -0.000478
v 0.409647 -0.216775 0.176907
v 0.453842 -0.205875 -0.000951
v 0.290751 -0.193108 0.124613
v 0.326227 -0.184056 -0.002533
v 0.153921 -0.078864 0.067675
v 0.179672 -0.075297 -0.003293
v 0.184224 0.097669 0.077665
v 0.204410 0.099852 -0.007214
v 0.313799 0.241239 0.130169
v 0.340248 0.243089 -0.004030
v 0.423549 0.272872 0.176232
v 0.459866 0.274814 -0.001470
v 0.507936 0.188195 0.211933
v 0.551988 0.190714 -0.000691
v 0.351719 -0.166278 0.404023
v 0.402626 0.023836 0.421642
v 0.269754 -0.271906 0.337661
v 0.198540 -0.225295 0.234103
v 0.114421 -0.091746 0.126829
v 0.138778 0.090215 0.144785
v 0.237352 0.236906 0.242337
v 0.322029 0.271136 0.327810
v 0.372013 0.163094 0.383410
v 0.178569 -0.159015 0.515855
v 0.202927 0.018114 0.525513
v 0.124630 -0.266234 0.425404
v 0.083311 -0.233245 0.287869
v 0.048133 -0.104709 0.167427
v 0.061145 0.079716 0.181314
v 0.122875 0.233549 0.314665
v 0.170728 0.235037 0.427111
v 0.189083 0.160041 0.488409
v -0.011600 -0.130361 0.553116
v -0.006770 0.023834 0.551685
v -0.019494 -0.225368 0.449512
v -0.026056 -0.214034 0.316982
v -0.018251 -0.108325 0.186060
v -0.014683 0.075849 0.203821
v -0.008543 0.234248 0.341635
v -0.006397 0.229701 0.459276
v -0.009637 0.164119 0.528996
v -0.219496 -0.123332 0.501157
v -0.230050 0.026508 0.539261
v -0.194106 -0.224420 0.418622
v -0.160006 -0.219949 0.304243
v -0.088714 -0.124783 0.175085
v -0.083768 0.064439 0.189573
v -0.138840 0.230248 0.315619
v -0.184193 0.254395 0.431274
v -0.214357 0.173567 0.494260
v -0.401883 -0.123168 0.391362
v -0.402784 0.027990 0.397461
v -0.335805 -0.220549 0.318281
v -0.256118 -0.211995 0.226615
v -0.147739 -0.117242 0.120441
v -0.153516 0.067923 0.138245
v -0.248431 0.230367 0.238511
v -0.330412 0.268018 0.323460
v -0.395167 0.185566 0.389134
v -0.515437 -0.123776 0.208531
v -0.522343 0.033717 0.213437
v -0.423066 -0.212669 0.166365
v -0.306757 -0.197915 0.108856
v -0.181346 -0.095830 0.050195
v -0.203824 0.083477 0.067722
v -0.319110 0.235589 0.124138
v -0.426777 0.270857 0.172316
v -0.511766 0.187911 0.208583
v -0.546951 -0.123224 -0.007749
v -0.584006 0.035270 -0.005200
v -0.449826 -0.211806 -0.014844
v -0.318561 -0.195737 -0.027861
v -0.178158 -0.091137 -0.036657
v -0.197341 0.084200 -0.029602
v -0.334892 0.237072 -0.012706
v -0.456443 0.271923 -0.006617
v -0.549639 0.188719 -0.004906
v -0.500171 -0.124631 -0.222353
v -0.534983 0.034570 -0.232030
v -0.408707 -0.215620 -0.198772
v -0.288906 -0.202891 -0.171071
v -0.168730 -0.099107 -0.124107
v -0.170777 0.077741 -0.121305
v -0.295587 0.234938 -0.149109
v -0.413818 0.271111 -0.185714
v -0.502532 0.188149 -0.218446
v -0.377545 -0.123781 -0.396431
v -0.404362 0.034663 -0.420390
v -0.306190 -0.212753 -0.334364
v -0.210370 -0.201040 -0.253031
v -0.114805 -0.115181 -0.153706
v -0.115772 0.062856 -0.162488
v -0.210510 0.231787 -0.254919
v -0.307277 0.270197 -0.333693
v -0.378432 0.187850 -0.396454
v -0.202301 -0.123027 -0.510287
v -0.216869 0.035159 -0.543938
v -0.163386 -0.211715 -0.422289
v -0.112625 -0.202550 -0.300162
v -0.069302 -0.121358 -0.163937
v -0.070750 0.059619 -0.186028
v -0.111051 0.232305 -0.320665
v -0.163228 0.270582 -0.428982
v -0.202490 0.188245 -0.512809
v 0.003084 -0.122728 -0.549827
v 0.003004 0.035929 -0.586638
v 0.003237 -0.191863 -0.449251
v 0.001713 -0.202634 -0.323468
v -0.009905 -0.111284 -0.177893
v -0.002165 0.071903 -0.204648
v 0.008043 0.235946 -0.343079
v 0.005215 0.271934 -0.461343
v 0.003585 0.189089 -0.552817
v 0.211323 -0.122607 -0.508457
v 0.225240 0.036801 -0.542084
v 0.171018 -0.174687 -0.411144
v 0.127404 -0.190567 -0.308178
v 0.069259 -0.092910 -0.180945
v 0.079770 0.082235 -0.200037
v 0.132516 0.238890 -0.319437
v 0.177460 0.273252 -0.426596
v 0.212321 0.189982 -0.510825
v 0.389074 -0.122091 -0.389726
v 0.414669 0.037414 -0.415371
v 0.316944 -0.174727 -0.317126
v 0.234614 -0.187650 -0.235774
v 0.137024 -0.083289 -0.136262
v 0.146500 0.092116 -0.160871
v 0.236563 0.240372 -0.250147
v 0.324520 0.274134 -0.328052
v 0.390347 0.190612 -0.391642
v 0.508325 -0.120902 -0.211541
v 0.541670 0.037803 -0.225328
v 0.414484 -0.177479 -0.173103
v 0.306771 -0.186008 -0.129702
v 0.184661 -0.070828 -0.079700
v 0.197865 0.101674 -0.096949
v 0.311630 0.242831 -0.139932
v 0.424279 0.274990 -0.179021
v 0.509954 0.191076 -0.212670
vn -0.9519 0.2339 -0.1979
vn -0.9527 0.2221 -0.2074
vn -0.6632 0.7387 -0.1201
vn -0.6665 0.7350 -0.1247
vn -0.6662 0.7353 -0.1242
vn -0.6626 0.7394 -0.1193
vn 0.1526 0.9834 0.0982
vn 0.1660 0.9793 0.1160
vn 0.5713 0.7918 0.2158
vn 0.5764 0.7785 0.2483
vn 0.9279 -0.1778 0.3277
vn 0.9652 -0.1313 0.2262
vn 0.7060 -0.6921 0.1501
vn 0.7178 -0.6836 0.1320
vn 0.2554 -0.9659 0.0414
vn 0.2619 -0.9643 0.0383
vn 0.2611 -0.9645 0.0386
vn 0.2553 -0.9660 0.0416
vn -0.6666 -0.7309 -0.1465
vn -0.6697 -0.7284 -0.1448
vn -0.6691 -0.7288 -0.1451
vn -0.6662 -0.7312 -0.1467
vn -0.9569 -0.2045 -0.2063
vn -0.9569 -0.2037 -0.2069
vn -0.9565 -0.2113 -0.2014
vn -0.9564 -0.2122 -0.2007
vn -0.7995 0.2641 -0.5396
vn -0.7890 0.2260 -0.5713
vn -0.6234 0.7012 -0.3460
vn -0.6115 0.7408 -0.2781
vn 0.0637 0.9257 0.3729
vn 0.0482 0.9466 0.3188
vn 0.4176 0.7142 0.5617
vn 0.4458 0.7653 0.4643
vn 0.8365 -0.1636 0.5230
vn 0.8245 -0.1720 0.5391
vn 0.6446 -0.6736 0.3616
vn 0.6090 -0.6916 0.3883
vn 0.2517 -0.9584 0.1345
vn 0.2209 -0.9656 0.1369
vn -0.6867 -0.5577 -0.4663
vn -0.4992 -0.7081 -0.4994
vn -0.7722 -0.3204 -0.5487
vn -0.7530 -0.2015 -0.6264
vn -0.4611 0.1114 -0.8803
vn -0.5233 0.2165 -0.8242
vn -0.3661 0.7007 -0.6123
vn -0.3596 0.6803 -0.6387
vn 0.1512 0.9706 0.1874
vn 0.0994 0.9312 0.3508
vn 0.2637 0.6975 0.6663
vn 0.2631 0.6970 0.6670
vn 0.2673 0.6998 0.6625
vn 0.2682 0.7003 0.6615
vn 0.5339 -0.1009 0.8395
vn 0.4373 -0.1461 0.8874
vn 0.3831 -0.6880 0.6164
vn 0.4061 -0.6793 0.6112
vn 0.0300 -0.9995 0.0005
vn 0.0299 -0.9996 0.0005
vn 0.0297 -0.9996 0.0006
vn 0.2894 -0.9525 0.0947
vn -0.3049 -0.6463 -0.6995
vn -0.4055 -0.5596 -0.7228
vn -0.4386 -0.2671 -0.8580
vn -0.4661 -0.3280 -0.8216
vn -0.1240 -0.0053 -0.9923
vn -0.1803 0.0783 -0.9805
vn -0.0211 0.7377 -0.6748
vn 0.0488 0.6296 -0.7754
vn 0.2827 0.9568 0.0678
vn 0.2135 0.9626 0.1668
vn 0.2919 0.7356 0.6113
vn 0.1581 0.6979 0.6986
vn 0.2739 -0.0976 0.9568
vn 0.2877 -0.0921 0.9533
vn 0.2482 -0.6413 0.7260
vn 0.1438 -0.6805 0.7185
vn -0.0132 -0.9992 -0.0384
vn 0.0302 -0.9995 0.0004
vn -0.1025 -0.7222 -0.6841
vn -0.1651 -0.6481 -0.7435
vn -0.1266 -0.1609 -0.9788
vn -0.1981 -0.2660 -0.9434
vn 0.0568 0.2498 -0.9666
vn 0.2419 -0.0166 -0.9702
vn 0.2050 0.6494 -0.7323
vn 0.1235 0.7267 -0.6758
vn -0.0014 0.9993 0.0386
vn -0.0523 0.9948 0.0877
vn -0.0895 0.8248 0.5583
vn -0.2695 0.7570 0.5952
vn -0.1370 -0.0721 0.9879
vn -0.1868 -0.0907 0.9782
vn -0.0600 -0.6166 0.7849
vn -0.1300 -0.6479 0.7505
vn -0.0100 -0.9796 0.2006
vn -0.1319 -0.9906 -0.0359
vn 0.0366 -0.6227 -0.7816
vn 0.0819 -0.7278 -0.6808
vn 0.0495 -0.2971 -0.9536
vn 0.1583 -0.1545 -0.9752
vn 0.6343 0.0349 -0.7723
vn 0.5000 0.2463 -0.8302
vn 0.3664 0.7046 -0.6076
vn 0.4612 0.6278 -0.6270
vn -0.0239 0.9971 0.0722
vn 0.0412 0.9978 0.0513
vn -0.2958 0.8421 0.4509
vn -0.2946 0.8424 0.4511
vn -0.3055 0.8397 0.4489
vn -0.3079 0.8392 0.4484
vn -0.6828 -0.0910 0.7249
vn -0.5936 -0.0460 0.8035
vn -0.4731 -0.6461 0.5990
vn -0.4470 -0.6307 0.6344
vn -0.1774 -0.9517 0.2506
vn -0.1867 -0.9738 0.1301
vn 0.3553 -0.7370 -0.5750
vn 0.3475 -0.6536 -0.6723
vn 0.6325 -0.0713 -0.7713
vn 0.4637 -0.3041 -0.8322
vn 0.8381 0.0537 -0.5428
vn 0.8492 0.0263 -0.5275
vn 0.5611 0.7496 -0.3510
vn 0.6441 0.6880 -0.3343
vn -0.0782 0.9923 0.0964
vn 0.0201 0.9937 0.1102
vn -0.5067 0.8029 0.3139
vn -0.3317 0.8464 0.4167
vn -0.9088 -0.1519 0.3885
vn -0.8197 -0.0801 0.5671
vn -0.6823 -0.6449 0.3445
vn -0.6722 -0.6314 0.3866
vn -0.2612 -0.9581 0.1177
vn -0.2736 -0.9490 0.1566
vn 0.5621 -0.7385 -0.3724
vn 0.5620 -0.7386 -0.3722
vn 0.5621 -0.7384 -0.3725
vn 0.5622 -0.7383 -0.3726
vn 0.8374 -0.0696 -0.5421
vn 0.8354 -0.0739 -0.5446
vn 0.8352 -0.0744 -0.5449
vn 0.8376 -0.0691 -0.5418
vn 0.9385 0.2236 -0.2631
vn 0.9884 0.0478 -0.1439
vn 0.6671 0.7388 -0.0952
vn 0.6670 0.7389 -0.0953
vn 0.6672 0.7387 -0.0951
vn 0.6674 0.7386 -0.0950
vn -0.1139 0.9932 0.0252
vn -0.1193 0.9926 0.0223
vn -0.1164 0.9929 0.0239
vn -0.1133 0.9932 0.0256
vn -0.5936 0.8022 0.0640
vn -0.6258 0.7798 0.0192
vn -0.9934 -0.1070 -0.0422
vn -0.9908 -0.1177 -0.0669
vn -0.7453 -0.6645 -0.0546
vn -0.7791 -0.6213 0.0831
vn -0.2746 -0.9613 0.0212
vn -0.2936 -0.9550 0.0430
vn 0.6658 -0.7364 -0.1202
vn 0.6605 -0.7421 -0.1139
vn 0.6614 -0.7412 -0.1149
vn 0.6664 -0.7357 -0.1210
vn 0.9406 -0.2101 -0.2668
vn 0.9820 -0.0729 -0.1745
vn 0.9535 0.2199 0.2063
vn 0.9534 0.2210 0.2054
vn 0.9534 0.2209 0.2055
vn 0.9535 0.2196 0.2064
vn 0.6739 0.7261 0.1365
vn 0.6792 0.7199 0.1433
vn 0.6786 0.7205 0.1426
vn 0.6730 0.7271 0.1354
vn -0.0959 0.9945 -0.0421
vn -0.1286 0.9888 -0.0760
vn -0.6071 0.7774 -0.1645
vn -0.5973 0.7903 -0.1364
vn -0.9943 -0.0098 -0.1063
vn -0.9580 -0.0939 -0.2709
vn -0.7559 -0.6310 -0.1745
vn -0.7390 -0.6425 -0.2029
vn -0.2778 -0.9586 -0.0619
vn -0.2738 -0.9597 -0.0639
vn -0.2742 -0.9596 -0.0637
vn -0.2779 -0.9586 -0.0618
vn 0.6432 -0.7495 0.1565
vn 0.6602 -0.7364 0.1476
vn 0.9538 -0.2146 0.2104
vn 0.9535 -0.2191 0.2071
vn 0.9534 -0.2197 0.2067
vn 0.9538 -0.2140 0.2110
vn 0.7992 0.2101 0.5631
vn 0.8016 0.2197 0.5560
vn 0.8014 0.2189 0.5566
vn 0.7990 0.2090 0.5639
vn 0.5599 0.7267 0.3980
vn 0.5708 0.6894 0.4461
vn -0.0850 0.9954 -0.0432
vn -0.0907 0.9938 -0.0645
vn -0.3918 0.8483 -0.3563
vn -0.2327 0.6116 -0.7561
vn -0.4911 -0.0456 -0.8699
vn -0.5983 0.0058 -0.8012
vn -0.5719 -0.6167 -0.5409
vn -0.6363 -0.5926 -0.4940
vn -0.2420 -0.9557 -0.1672
vn -0.2432 -0.9555 -0.1671
vn -0.2429 -0.9555 -0.1671
vn -0.2407 -0.9561 -0.1674
vn 0.5310 -0.7538 0.3870
vn 0.5506 -0.7407 0.3851
vn 0.8004 -0.2189 0.5580
vn 0.8011 -0.2221 0.5558
vn 0.8012 -0.2224 0.5555
vn 0.8003 -0.2185 0.5583
vn 0.5320 0.2147 0.8191
vn 0.5360 0.2226 0.8143
vn 0.5358 0.2219 0.8147
vn 0.5316 0.2139 0.8196
vn 0.3695 0.7312 0.5735
vn 0.3647 0.7115 0.6007
vn -0.0425 0.9975 -0.0572
vn -0.0342 0.9941 -0.1028
vn -0.2047 0.8681 -0.4523
vn -0.0373 0.7735 -0.6327
vn -0.2350 -0.1196 -0.9646
vn -0.2386 -0.1196 -0.9637
vn -0.2332 -0.1197 -0.9650
vn -0.4655 -0.0461 -0.8839
vn -0.3981 -0.6200 -0.6761
vn -0.4357 -0.6077 -0.6640
vn -0.1665 -0.9519 -0.2574
vn -0.1650 -0.9522 -0.2570
vn -0.1653 -0.9522 -0.2571
vn -0.1679 -0.9515 -0.2577
vn 0.3701 -0.7436 0.5568
vn 0.3703 -0.7435 0.5568
vn 0.3700 -0.7437 0.5567
vn 0.3698 -0.7439 0.5567
vn 0.5385 -0.2181 0.8139
vn 0.5376 -0.2164 0.8149
vn 0.5376 -0.2162 0.8150
vn 0.5386 -0.2183 0.8138
vn 0.1842 0.2209 0.9578
vn 0.1851 0.2222 0.9573
vn 0.1850 0.2220 0.9573
vn 0.1841 0.2207 0.9578
vn 0.1072 0.8194 0.5631
vn 0.0291 0.7105 0.7031
vn -0.1050 0.9910 0.0836
vn -0.1048 0.9910 0.0836
vn -0.1045 0.9910 0.0836
vn -0.0134 0.9975 -0.0693
vn -0.1084 0.8381 -0.5346
vn -0.2491 0.8647 -0.4361
vn -0.2053 -0.1329 -0.9696
vn -0.2401 -0.1195 -0.9634
vn -0.0930 -0.6387 -0.7638
vn -0.1253 -0.6280 -0.7680
vn -0.0254 -0.9565 -0.2905
vn -0.0520 -0.9492 -0.3104
vn 0.1319 -0.7372 0.6627
vn 0.1335 -0.7358 0.6640
vn 0.1333 -0.7360 0.6638
vn 0.1317 -0.7373 0.6626
vn 0.1870 -0.2125 0.9591
vn 0.1870 -0.2126 0.9591
vn 0.1871 -0.2126 0.9591
vn -0.1903 0.2214 0.9564
vn -0.1926 0.2186 0.9566
vn -0.1923 0.2188 0.9566
vn -0.1901 0.2218 0.9564
vn -0.0882 0.8930 0.4414
vn -0.2084 0.8058 0.5542
vn -0.1237 0.9873 0.0998
vn -0.1053 0.9909 0.0836
vn -0.0020 0.7928 -0.6094
vn -0.2109 0.8203 -0.5316
vn -0.0134 -0.1076 -0.9941
vn 0.0741 -0.1472 -0.9863
vn 0.1224 -0.6274 -0.7690
vn 0.1576 -0.6426 -0.7498
vn 0.0751 -0.9583 -0.2758
vn 0.0662 -0.9541 -0.2919
vn -0.1309 -0.7334 0.6671
vn -0.1295 -0.7314 0.6695
vn -0.1297 -0.7317 0.6691
vn -0.1310 -0.7337 0.6668
vn -0.1918 -0.2110 0.9585
vn -0.1917 -0.2112 0.9585
vn -0.1913 -0.2117 0.9584
vn -0.1919 -0.2109 0.9585
vn -0.5429 0.2179 0.8110
vn -0.5432 0.2175 0.8110
vn -0.5428 0.2181 0.8111
vn -0.5425 0.2185 0.8112
vn -0.2594 0.8859 0.3845
vn -0.2430 0.8935 0.3776
vn -0.0614 0.9935 0.0957
vn -0.1010 0.9888 0.1097
vn 0.3253 0.7940 -0.5136
vn 0.2294 0.8199 -0.5245
vn 0.5589 -0.1447 -0.8165
vn 0.5158 -0.1234 -0.8478
vn 0.4554 -0.6457 -0.6129
vn 0.4349 -0.6339 -0.6395
vn 0.1654 -0.9583 -0.2331
vn 0.1658 -0.9593 -0.2285
vn 0.1656 -0.9591 -0.2296
vn 0.1650 -0.9572 -0.2377
vn -0.3773 -0.7316 0.5678
vn -0.3771 -0.7306 0.5693
vn -0.3772 -0.7308 0.5689
vn -0.3773 -0.7319 0.5674
vn -0.5430 -0.2119 0.8126
vn -0.5431 -0.2118 0.8125
vn -0.5429 -0.2121 0.8126
vn -0.5432 -0.2116 0.8125
vn -0.8118 0.2175 0.5420
vn -0.8117 0.2176 0.5420
vn -0.8118 0.2175 0.5419
vn -0.8119 0.2174 0.5419
vn -0.4133 0.8694 0.2708
vn -0.3747 0.8868 0.2707
vn -0.0560 0.9968 0.0570
vn -0.1023 0.9933 0.0542
vn 0.5460 0.7451 -0.3830
vn 0.3627 0.7980 -0.4813
vn 0.7722 -0.1215 -0.6236
vn 0.7824 -0.1278 -0.6096
vn 0.6405 -0.6436 -0.4191
vn 0.6406 -0.6438 -0.4185
vn 0.6399 -0.6427 -0.4213
vn 0.6399 -0.6425 -0.4215
vn 0.2287 -0.9642 -0.1342
vn 0.2345 -0.9603 -0.1514
vn -0.5643 -0.7332 0.3795
vn -0.5654 -0.7307 0.3827
vn -0.5651 -0.7311 0.3822
vn -0.5643 -0.7334 0.3791
vn -0.8121 -0.2130 0.5432
vn -0.8122 -0.2129 0.5432
vn -0.8121 -0.2131 0.5433
vn -0.9575 0.2176 0.1892
vn -0.9571 0.2225 0.1854
vn -0.9575 0.2180 0.1888
vn -0.9571 0.2231 0.1850
vn -0.9586 -0.2137 0.1885
vn -0.9587 -0.2123 0.1895
vn -0.9585 -0.2139 0.1884
vn -0.9586 -0.2121 0.1897
vn -0.4863 0.8690 0.0918
vn -0.6445 0.7170 0.2656
vn -0.0115 0.9862 0.1653
vn 0.1689 0.9848 -0.0410
vn 0.6572 0.7454 -0.1120
vn 0.5935 0.8003 0.0856
vn 0.9957 -0.0701 0.0609
vn 0.9872 -0.1411 -0.0749
vn 0.7664 -0.6387 -0.0689
vn 0.7190 -0.6786 -0.1501
vn 0.2573 -0.9649 -0.0523
vn 0.2572 -0.9649 -0.0524
vn 0.2571 -0.9649 -0.0524
vn 0.2571 -0.9650 -0.0525
vn -0.6664 -0.7337 0.1328
vn -0.6687 -0.7318 0.1314
vn -0.6667 -0.7334 0.1326
vn -0.6690 -0.7316 0.1314
vt 0.053771 0.725203
vt 0.124526 0.740870
vt 0.106273 0.832538
vt 0.038143 0.812713
vt 0.010962 0.708443
vt -0.000000 0.782690
vt 0.833515 0.271349
vt 0.890175 0.283015
vt 0.860557 0.357686
vt 0.813664 0.325666
vt 0.764952 0.254290
vt 0.756062 0.286141
vt 0.877196 0.616798
vt 0.955023 0.606772
vt 0.956776 0.638970
vt 0.880337 0.652651
vt 0.810279 0.634338
vt 0.816014 0.689638
vt 0.120470 0.407876
vt 0.147218 0.363221
vt 0.202115 0.385443
vt 0.193017 0.437839
vt 0.092220 0.438161
vt 0.178987 0.474277
vt 0.189342 0.748173
vt 0.171600 0.833982
vt 0.052576 0.617492
vt 0.136493 0.636959
vt -0.000000 0.612637
vt 0.829820 0.209819
vt 0.883522 0.191771
vt 0.766414 0.223505
vt 0.877587 0.581070
vt 0.958110 0.575193
vt 0.807398 0.574799
vt 0.064604 0.351986
vt 0.105779 0.321181
vt 0.192303 0.651620
vt 0.232851 0.665310
vt 0.221189 0.744518
vt 0.029214 0.365017
vt 0.063429 0.534338
vt 0.140663 0.548901
vt 0.008370 0.545007
vt 0.802717 0.161858
vt 0.853685 0.123726
vt 0.753663 0.192678
vt 0.881285 0.548528
vt 0.962529 0.543844
vt 0.806623 0.520531
vt 0.032818 0.277622
vt 0.084583 0.266027
vt 0.000000 0.277818
vt 0.197963 0.567658
vt 0.629098 0.543062
vt 0.561436 0.541691
vt 0.559778 0.478781
vt 0.076390 0.474277
vt 0.806474 0.077799
vt 0.830844 0.039855
vt 0.890552 0.101697
vt 0.770185 0.123454
vt 0.734892 0.169455
vt 0.882790 0.521760
vt 0.964001 0.520791
vt 0.806623 0.478781
vt 0.033901 0.198686
vt 0.084390 0.207383
vt 0.000000 0.189269
vt 0.499535 0.548936
vt 0.200561 0.502614
vt 0.628445 0.627493
vt 0.563818 0.620091
vt 0.736457 0.045128
vt 0.743371 0.006244
vt 0.719554 0.094643
vt 0.707820 0.156213
vt 0.711939 0.897126
vt 0.629098 0.901948
vt 0.636990 0.873343
vt 0.717554 0.868244
vt 0.782234 0.888023
vt 0.785153 0.833712
vt 0.062691 0.125405
vt 0.106290 0.153304
vt 0.032893 0.104389
vt 0.498144 0.627422
vt 0.629098 0.719754
vt 0.563029 0.718177
vt 0.660513 0.045575
vt 0.650732 0.000000
vt 0.407485 0.573820
vt 0.407485 0.474277
vt 0.439777 0.505079
vt 0.665375 0.098233
vt 0.672663 0.160847
vt 0.713369 0.935066
vt 0.632481 0.936719
vt 0.782083 0.946786
vt 0.121933 0.071704
vt 0.148420 0.112385
vt 0.093833 0.035539
vt 0.493688 0.717821
vt 0.460842 0.635061
vt 0.627315 0.809614
vt 0.558547 0.810382
vt 0.590764 0.078078
vt 0.564233 0.037265
vt 0.616981 0.127461
vt 0.641960 0.177062
vt 0.720593 0.970394
vt 0.642466 0.965821
vt 0.785153 1.000000
vt 0.194584 0.042519
vt 0.203418 0.091378
vt 0.180672 -0.000000
vt 0.490712 0.808053
vt 0.622886 0.881431
vt 0.554146 0.892976
vt 0.535513 0.136462
vt 0.498463 0.107069
vt 0.578209 0.173568
vt 0.620976 0.208936
vt 0.843073 0.744566
vt 0.847322 0.820159
vt 0.815380 0.817795
vt 0.806623 0.740073
vt 0.263019 0.095642
vt 0.247850 0.150491
vt 0.206996 0.139857
vt 0.273226 0.044179
vt 0.274682 0.000898
vt 0.486342 0.881212
vt 0.805559 0.577308
vt 0.737222 0.573692
vt 0.731920 0.478781
vt 0.800229 0.487422
vt 0.503976 0.212961
vt 0.461093 0.195941
vt 0.553013 0.232659
vt 0.880835 0.827780
vt 0.865223 0.880394
vt 0.806623 0.871081
vt 0.602672 0.242946
vt 0.882488 0.751019
vt 0.863535 0.689638
vt 0.317479 0.123421
vt 0.345636 0.076865
vt 0.361363 0.038286
vt 0.668789 0.577789
vt 0.663863 0.488206
vt 0.806623 0.670725
vt 0.738792 0.674267
vt 0.506168 0.287283
vt 0.460842 0.289187
vt 0.560233 0.281731
vt 0.615186 0.267547
vt 0.904830 0.833988
vt 0.910920 0.757270
vt 0.922921 0.692887
vt 0.399360 0.134527
vt 0.354960 0.168384
vt 0.670423 0.672992
vt 0.630652 0.667880
vt 0.629098 0.587926
vt 0.804549 0.754821
vt 0.736757 0.764873
vt 0.534811 0.354622
vt 0.494516 0.373978
vt 0.583235 0.323196
vt 0.629109 0.282798
vt 0.930717 0.757975
vt 0.919939 0.835252
vt 0.374444 0.216447
vt 0.301809 0.216577
vt 0.295874 0.195448
vt 0.427582 0.204130
vt 0.668557 0.758168
vt 0.629098 0.737627
vt 0.234940 0.820441
vt 0.305169 0.828483
vt 0.302729 0.899687
vt 0.232851 0.887034
vt 0.586403 0.405489
vt 0.557679 0.439629
vt 0.618084 0.360216
vt 0.646261 0.302407
vt 0.955021 0.750682
vt 0.940201 0.829068
vt 0.374054 0.269587
vt 0.304719 0.248015
vt 0.427048 0.279202
vt 0.460310 0.282789
vt 0.460842 0.190942
vt 0.663496 0.822684
vt 0.731416 0.833712
vt 0.235537 0.733659
vt 0.306125 0.735768
vt 0.654937 0.433341
vt 0.642262 0.476928
vt 0.666122 0.385868
vt 0.672803 0.322814
vt 0.918019 0.087459
vt 0.932257 0.163479
vt 0.908432 0.177000
vt 0.890552 0.097887
vt 0.353586 0.321313
vt 0.296482 0.283254
vt 0.397670 0.350516
vt 0.372670 0.732482
vt 0.407485 0.725087
vt 0.406466 0.796999
vt 0.371743 0.819599
vt 0.234751 0.639851
vt 0.305313 0.635754
vt 0.730608 0.436117
vt 0.735470 0.478781
vt 0.722415 0.386626
vt 0.707738 0.323462
vt 0.950306 0.077468
vt 0.966463 0.153392
vt 0.944198 0.009112
vt 0.890552 0.018871
vt 0.343302 0.405860
vt 0.315363 0.360536
vt 0.371929 0.638465
vt 0.407029 0.647400
vt 0.232851 0.553609
vt 0.302899 0.543846
vt 0.801783 0.408879
vt 0.822799 0.444595
vt 0.774772 0.366542
vt 0.738364 0.314718
vt 0.984579 0.068108
vt 0.997227 0.143222
vt 0.999847 -0.000000
vt 0.271516 0.436809
vt 0.262290 0.384047
vt 0.272678 0.473248
vt 0.358909 0.436185
vt 0.369699 0.551909
vt 0.085287 0.899759
vt 0.017973 0.875904
vt 0.298957 0.474277
vt 0.366047 0.486233
vt 0.890552 0.378992
vt 0.958682 0.668127
vt 0.884228 0.683756
vt 0.243943 0.326465
vt 0.205126 0.322003
s 1
f 1/1/1 2/2/1 3/3/1
f 1/1/2 3/3/2 4/4/2
f 5/5/3 1/1/4 4/4/5
f 5/5/3 4/4/5 6/6/6
f 7/7/7 5/8/7 6/9/7
f 7/7/8 6/9/8 8/10/8
f 9/11/9 7/7/9 8/10/9
f 9/11/10 8/10/10 10/12/10
f 11/13/11 9/14/11 10/15/11
f 11/13/12 10/15/12 12/16/12
f 13/17/13 11/13/13 12/16/13
f 13/17/14 12/16/14 14/18/14
f 15/19/15 13/20/16 14/21/17
f 15/19/15 14/21/17 16/22/18
f 17/23/19 15/19/20 16/22/21
f 17/23/19 16/22/21 18/24/22
f 3/3/23 2/2/24 17/25/25
f 18/26/26 3/3/23 17/25/25
f 19/27/27 20/28/27 2/2/27
f 19/27/28 2/2/28 1/1/28
f 21/29/29 19/27/29 1/1/29
f 21/29/30 1/1/30 5/5/30
f 22/30/31 21/31/31 5/8/31
f 22/30/32 5/8/32 7/7/32
f 23/32/33 22/30/33 7/7/33
f 23/32/34 7/7/34 9/11/34
f 24/33/35 23/34/35 9/14/35
f 24/33/36 9/14/36 11/13/36
f 25/35/37 24/33/37 11/13/37
f 25/35/38 11/13/38 13/17/38
f 26/36/39 25/37/39 13/20/39
f 26/36/40 13/20/40 15/19/40
f 27/38/41 26/39/41 15/40/41
f 27/41/42 15/19/42 17/23/42
f 27/38/43 2/2/43 20/28/43
f 27/38/44 17/25/44 2/2/44
f 28/42/45 29/43/45 20/28/45
f 28/42/46 20/28/46 19/27/46
f 30/44/47 28/42/47 19/27/47
f 30/44/48 19/27/48 21/29/48
f 31/45/49 30/46/49 21/31/49
f 31/45/50 21/31/50 22/30/50
f 32/47/51 31/45/52 22/30/53
f 32/47/51 22/30/53 23/32/54
f 33/48/55 32/49/55 23/34/55
f 33/48/56 23/34/56 24/33/56
f 34/50/57 33/48/57 24/33/57
f 34/50/58 24/33/58 25/35/58
f 35/51/59 34/52/60 25/37/61
f 35/51/62 25/37/62 26/36/62
f 36/53/63 35/51/63 26/36/63
f 36/54/64 26/39/64 27/38/64
f 36/54/65 20/28/65 29/43/65
f 36/54/66 27/38/66 20/28/66
f 37/55/67 38/56/67 29/57/67
f 37/58/68 29/43/68 28/42/68
f 39/59/69 37/60/69 28/61/69
f 39/59/70 28/61/70 30/46/70
f 40/62/71 39/59/71 30/46/71
f 40/62/72 30/46/72 31/45/72
f 41/63/73 40/62/73 31/45/73
f 41/63/74 31/45/74 32/47/74
f 42/64/75 41/65/75 32/49/75
f 42/64/76 32/49/76 33/48/76
f 43/66/77 42/64/77 33/48/77
f 43/66/78 33/48/78 34/50/78
f 44/67/79 43/68/79 34/52/79
f 44/67/80 34/52/60 35/51/59
f 45/69/81 44/67/81 35/51/81
f 45/69/82 35/51/82 36/53/82
f 45/70/83 29/57/83 38/56/83
f 45/71/84 36/54/84 29/43/84
f 46/72/85 47/73/85 38/56/85
f 46/72/86 38/56/86 37/55/86
f 48/74/87 46/75/87 37/60/87
f 48/74/88 37/60/88 39/59/88
f 49/76/89 48/74/89 39/59/89
f 49/76/90 39/59/90 40/62/90
f 50/77/91 49/76/91 40/62/91
f 50/77/92 40/62/92 41/63/92
f 51/78/93 50/79/93 41/80/93
f 51/78/94 41/80/94 42/81/94
f 52/82/95 51/78/95 42/81/95
f 52/82/96 42/81/96 43/83/96
f 53/84/97 52/85/97 43/68/97
f 53/84/98 43/68/98 44/67/98
f 54/86/99 53/84/99 44/67/99
f 54/86/100 44/67/100 45/69/100
f 54/87/101 38/56/101 47/73/101
f 54/87/102 45/70/102 38/56/102
f 55/88/103 56/89/103 47/73/103
f 55/88/104 47/73/104 46/72/104
f 57/90/105 55/91/105 46/75/105
f 57/92/106 46/93/106 48/94/106
f 58/95/107 57/90/107 48/74/107
f 58/95/108 48/74/108 49/76/108
f 59/96/109 58/95/110 49/76/111
f 59/96/109 49/76/111 50/77/112
f 60/97/113 59/98/113 50/79/113
f 60/97/114 50/79/114 51/78/114
f 61/99/115 60/97/115 51/78/115
f 61/99/116 51/78/116 52/82/116
f 62/100/117 61/101/117 52/85/117
f 62/100/118 52/85/118 53/84/118
f 63/102/119 62/100/119 53/84/119
f 63/103/120 53/104/120 54/87/120
f 63/103/121 47/73/121 56/89/121
f 63/103/122 54/87/122 47/73/122
f 64/105/123 65/106/123 56/89/123
f 64/105/124 56/89/124 55/88/124
f 66/107/125 64/108/125 55/91/125
f 66/107/126 55/91/126 57/90/126
f 67/109/127 66/107/127 57/90/127
f 67/109/128 57/90/128 58/95/128
f 68/110/129 67/109/129 58/95/129
f 68/110/130 58/95/130 59/96/130
f 69/111/131 68/112/131 59/98/131
f 69/111/132 59/98/132 60/97/132
f 70/113/133 69/111/133 60/97/133
f 70/113/134 60/97/134 61/99/134
f 71/114/135 70/115/135 61/101/135
f 71/114/136 61/101/136 62/100/136
f 72/116/137 71/114/138 62/100/139
f 72/116/137 62/100/139 63/102/140
f 72/117/141 56/89/142 65/106/143
f 72/117/141 63/103/144 56/89/142
f 73/118/145 74/119/145 65/106/145
f 73/118/146 65/106/146 64/105/146
f 75/120/147 73/121/148 64/108/149
f 75/120/147 64/108/149 66/107/150
f 76/122/151 75/120/152 66/107/153
f 76/122/151 66/107/153 67/109/154
f 77/123/155 76/122/155 67/109/155
f 77/123/156 67/109/156 68/110/156
f 78/124/157 77/125/157 68/126/157
f 78/124/158 68/126/158 69/127/158
f 79/128/159 78/129/159 69/130/159
f 79/128/160 69/130/160 70/115/160
f 80/131/161 79/128/161 70/115/161
f 80/131/162 70/115/162 71/114/162
f 81/132/163 80/131/164 71/114/165
f 81/132/163 71/114/165 72/116/166
f 81/133/167 65/106/167 74/119/167
f 81/133/168 72/117/168 65/106/168
f 82/134/169 83/135/170 74/136/171
f 82/134/169 74/136/171 73/137/172
f 84/138/173 82/139/174 73/121/175
f 84/138/173 73/121/175 75/120/176
f 85/140/177 84/138/177 75/120/177
f 85/140/178 75/120/178 76/122/178
f 86/141/179 85/142/179 76/143/179
f 86/144/180 76/122/180 77/123/180
f 87/145/181 86/141/181 77/125/181
f 87/145/182 77/125/182 78/124/182
f 88/146/183 87/145/183 78/124/183
f 88/147/184 78/129/184 79/128/184
f 89/148/185 88/147/186 79/128/187
f 89/148/185 79/128/187 80/131/188
f 90/149/189 89/148/189 80/131/189
f 90/149/190 80/131/190 81/132/190
f 90/150/191 74/136/192 83/135/193
f 90/150/191 81/151/194 74/136/192
f 91/152/195 92/153/196 83/135/197
f 91/152/195 83/135/197 82/134/198
f 93/154/199 91/155/199 82/139/199
f 93/154/200 82/139/200 84/138/200
f 94/156/201 93/154/201 84/138/201
f 94/156/202 84/138/202 85/140/202
f 95/157/203 94/156/203 85/140/203
f 95/158/204 85/142/204 86/141/204
f 96/159/205 95/158/205 86/141/205
f 96/159/206 86/141/206 87/145/206
f 97/160/207 96/159/207 87/145/207
f 97/160/208 87/145/208 88/146/208
f 98/161/209 97/162/210 88/147/211
f 98/161/209 88/147/211 89/148/212
f 99/163/213 98/164/213 89/165/213
f 99/163/214 89/165/214 90/150/214
f 99/163/215 83/135/216 92/153/217
f 99/163/215 90/150/218 83/135/216
f 100/166/219 101/167/220 92/153/221
f 100/166/219 92/153/221 91/152/222
f 102/168/223 100/169/223 91/155/223
f 102/168/224 91/155/224 93/154/224
f 103/170/225 102/168/225 93/154/225
f 103/170/226 93/154/226 94/156/226
f 104/171/227 103/170/227 94/156/227
f 104/171/228 94/156/228 95/157/228
f 105/172/229 104/173/230 95/158/231
f 105/172/232 95/158/232 96/159/232
f 106/174/233 105/175/233 96/176/233
f 106/174/234 96/176/234 97/162/234
f 107/177/235 106/174/236 97/162/237
f 107/177/235 97/162/237 98/161/238
f 108/178/239 107/179/240 98/164/241
f 108/178/239 98/164/241 99/163/242
f 108/178/243 92/153/244 101/167/245
f 108/178/243 99/163/246 92/153/244
f 109/180/247 110/181/248 101/182/249
f 109/180/247 101/182/249 100/183/250
f 111/184/251 109/185/251 100/169/251
f 111/184/252 100/169/252 102/168/252
f 112/186/253 111/184/254 102/168/255
f 112/186/256 102/168/256 103/170/256
f 113/187/257 112/186/257 103/170/257
f 113/187/258 103/170/258 104/171/258
f 114/188/259 113/189/259 104/173/259
f 114/188/260 104/173/230 105/172/229
f 115/190/261 114/191/261 105/175/261
f 115/190/262 105/175/262 106/174/262
f 116/192/263 115/190/263 106/174/263
f 116/192/264 106/174/264 107/177/264
f 117/193/265 116/192/266 107/177/267
f 117/193/265 107/177/267 108/194/268
f 117/195/269 101/167/270 110/196/269
f 117/195/269 108/178/271 101/167/270
f 118/197/272 119/198/273 110/181/274
f 118/197/272 110/181/274 109/180/275
f 120/199/276 118/200/276 109/185/276
f 120/199/277 109/185/277 111/184/277
f 121/201/278 120/199/278 111/184/278
f 121/201/279 111/184/254 112/186/253
f 122/202/280 121/201/280 112/186/280
f 122/202/281 112/186/281 113/187/281
f 123/203/282 122/204/282 113/205/282
f 123/203/283 113/205/283 114/206/283
f 124/207/284 123/208/284 114/191/284
f 124/207/285 114/191/285 115/190/285
f 125/209/286 124/207/286 115/190/286
f 125/209/287 115/190/287 116/192/287
f 126/210/288 125/211/289 116/212/290
f 126/210/288 116/212/290 117/213/291
f 126/210/292 110/181/293 119/198/294
f 126/210/292 117/213/295 110/181/293
f 127/214/296 128/215/297 119/198/298
f 127/214/296 119/198/298 118/197/299
f 129/216/300 127/217/300 118/200/300
f 129/216/301 118/200/301 120/199/301
f 130/218/302 129/216/302 120/199/302
f 130/218/303 120/199/303 121/201/303
f 131/219/304 130/218/304 121/201/304
f 131/219/305 121/201/305 122/202/305
f 132/220/306 131/221/306 122/204/306
f 132/220/307 122/204/307 123/203/307
f 133/222/308 132/220/308 123/203/308
f 133/222/309 123/203/309 124/223/309
f 134/224/310 133/225/311 124/207/312
f 134/224/310 124/207/312 125/209/313
f 135/226/314 134/227/315 125/211/316
f 135/226/314 125/211/316 126/210/317
f 135/226/318 119/198/319 128/215/320
f 135/226/318 126/210/321 119/198/319
f 136/228/322 137/229/323 128/215/324
f 136/228/322 128/215/324 127/214/325
f 138/230/326 136/231/326 127/217/326
f 138/230/327 127/217/327 129/216/327
f 139/232/328 138/230/328 129/216/328
f 139/232/329 129/216/329 130/218/329
f 140/233/330 139/232/330 130/218/330
f 140/233/331 130/218/331 131/219/331
f 141/234/332 140/235/332 131/221/332
f 141/234/333 131/221/333 132/220/333
f 142/236/334 141/234/335 132/220/336
f 142/236/334 132/220/336 133/222/337
f 143/237/338 142/238/338 133/225/338
f 143/237/339 133/225/339 134/224/339
f 144/239/340 143/237/341 134/224/342
f 144/239/340 134/224/342 135/240/343
f 144/241/344 128/215/344 137/229/345
f 144/241/344 135/226/346 128/215/344
f 137/242/347 136/243/348 3/3/349
f 136/243/348 4/4/350 3/3/349
f 3/244/351 144/241/352 137/229/353
f 3/244/351 18/245/354 144/241/352
f 136/231/355 138/230/355 4/246/355
f 138/230/356 6/9/356 4/246/356
f 138/230/357 139/232/357 6/9/357
f 139/232/358 8/10/358 6/9/358
f 139/232/359 140/233/359 8/10/359
f 140/233/360 10/12/360 8/10/360
f 140/247/361 141/248/361 10/15/361
f 141/248/362 12/16/362 10/15/362
f 141/249/363 142/238/363 12/250/363
f 142/238/364 14/21/364 12/250/364
f 142/238/365 143/237/366 14/21/367
f 143/237/366 16/22/368 14/21/367
f 143/237/369 144/239/370 16/22/371
f 144/239/370 18/24/372 16/22/371
