# Blender 4.4.1
# www.blender.org
mtllib donut_tres_lisse.mtl
o torus
v 0.501041 -0.127772 0.213011
v 0.537958 0.033184 0.225706
v 0.585991 0.037266 -0.000459
v 0.549258 -0.120284 -0.000478
v 0.409647 -0.216775 0.176907
v 0.453842 -0.205875 -0.000951
v 0.290751 -0.193108 0.124613
v 0.326227 -0.184056 -0.002533
v 0.153921 -0.078864 0.067675
v 0.179672 -0.075297 -0.003293
v 0.184224 0.097669 0.077665
v 0.204410 0.099852 -0.007214
v 0.313799 0.241239 0.130169
v 0.340248 0.243089 -0.004030
v 0.423549 0.272872 0.176232
v 0.459866 0.274814 -0.001470
v 0.507936 0.188195 0.211933
v 0.551988 0.190714 -0.000691
v 0.351719 -0.166278 0.404023
v 0.402626 0.023836 0.421642
v 0.269754 -0.271906 0.337661
v 0.198540 -0.225295 0.234103
v 0.114421 -0.091746 0.126829
v 0.138778 0.090215 0.144785
v 0.237352 0.236906 0.242337
v 0.322029 0.271136 0.327810
v 0.372013 0.163094 0.383410
v 0.178569 -0.159015 0.515855
v 0.202927 0.018114 0.525513
v 0.124630 -0.266234 0.425404
v 0.083311 -0.233245 0.287869
v 0.048133 -0.104709 0.167427
v 0.061145 0.079716 0.181314
v 0.122875 0.233549 0.314665
v 0.170728 0.235037 0.427111
v 0.189083 0.160041 0.488409
v -0.011600 -0.130361 0.553116
v -0.006770 0.023834 0.551685
v -0.019494 -0.225368 0.449512
v -0.026056 -0.214034 0.316982
v -0.018251 -0.108325 0.186060
v -0.014683 0.075849 0.203821
v -0.008543 0.234248 0.341635
v -0.006397 0.229701 0.459276
v -0.009637 0.164119 0.528996
v -0.219496 -0.123332 0.501157
v -0.230050 0.026508 0.539261
v -0.194106 -0.224420 0.418622
v -0.160006 -0.219949 0.304243
v -0.088714 -0.124783 0.175085
v -0.083768 0.064439 0.189573
v -0.138840 0.230248 0.315619
v -0.184193 0.254395 0.431274
v -0.214357 0.173567 0.494260
v -0.401883 -0.123168 0.391362
v -0.402784 0.027990 0.397461
v -0.335805 -0.220549 0.318281
v -0.256118 -0.211995 0.226615
v -0.147739 -0.117242 0.120441
v -0.153516 0.067923 0.138245
v -0.248431 0.230367 0.238511
v -0.330412 0.268018 0.323460
v -0.395167 0.185566 0.389134
v -0.515437 -0.123776 0.208531
v -0.522343 0.033717 0.213437
v -0.423066 -0.212669 0.166365
v -0.306757 -0.197915 0.108856
v -0.181346 -0.095830 0.050195
v -0.203824 0.083477 0.067722
v -0.319110 0.235589 0.124138
v -0.426777 0.270857 0.172316
v -0.511766 0.187911 0.208583
v -0.546951 -0.123224 -0.007749
v -0.584006 0.035270 -0.005200
v -0.449826 -0.211806 -0.014844
v -0.318561 -0.195737 -0.027861
v -0.178158 -0.091137 -0.036657
v -0.197341 0.084200 -0.029602
v -0.334892 0.237072 -0.012706
v -0.456443 0.271923 -0.006617
v -0.549639 0.188719 -0.004906
v -0.500171 -0.124631 -0.222353
v -0.534983 0.034570 -0.232030
v -0.408707 -0.215620 -0.198772
v -0.288906 -0.202891 -0.171071
v -0.168730 -0.099107 -0.124107
v -0.170777 0.077741 -0.121305
v -0.295587 0.234938 -0.149109
v -0.413818 0.271111 -0.185714
v -0.502532 0.188149 -0.218446
v -0.377545 -0.123781 -0.396431
v -0.404362 0.034663 -0.420390
v -0.306190 -0.212753 -0.334364
v -0.210370 -0.201040 -0.253031
v -0.114805 -0.115181 -0.153706
v -0.115772 0.062856 -0.162488
v -0.210510 0.231787 -0.254919
v -0.307277 0.270197 -0.333693
v -0.378432 0.187850 -0.396454
v -0.202301 -0.123027 -0.510287
v -0.216869 0.035159 -0.543938
v -0.163386 -0.211715 -0.422289
v -0.112625 -0.202550 -0.300162
v -0.069302 -0.121358 -0.163937
v -0.070750 0.059619 -0.186028
v -0.111051 0.232305 -0.320665
v -0.163228 0.270582 -0.428982
v -0.202490 0.188245 -0.512809
v 0.003084 -0.122728 -0.549827
v 0.003004 0.035929 -0.586638
v 0.003237 -0.191863 -0.449251
v 0.001713 -0.202634 -0.323468
v -0.009905 -0.111284 -0.177893
v -0.002165 0.071903 -0.204648
v 0.008043 0.235946 -0.343079
v 0.005215 0.271934 -0.461343
v 0.003585 0.189089 -0.552817
v 0.211323 -0.122607 -0.508457
v 0.225240 0.036801 -0.542084
v 0.171018 -0.174687 -0.411144
v 0.127404 -0.190567 -0.308178
v 0.069259 -0.092910 -0.180945
v 0.079770 0.082235 -0.200037
v 0.132516 0.238890 -0.319437
v 0.177460 0.273252 -0.426596
v 0.212321 0.189982 -0.510825
v 0.389074 -0.122091 -0.389726
v 0.414669 0.037414 -0.415371
v 0.316944 -0.174727 -0.317126
v 0.234614 -0.187650 -0.235774
v 0.137024 -0.083289 -0.136262
v 0.146500 0.092116 -0.160871
v 0.236563 0.240372 -0.250147
v 0.324520 0.274134 -0.328052
v 0.390347 0.190612 -0.391642
v 0.508325 -0.120902 -0.211541
v 0.541670 0.037803 -0.225328
v 0.414484 -0.177479 -0.173103
v 0.306771 -0.186008 -0.129702
v 0.184661 -0.070828 -0.079700
v 0.197865 0.101674 -0.096949
v 0.311630 0.242831 -0.139932
v 0.424279 0.274990 -0.179021
v 0.509954 0.191076 -0.212670
vn -0.9519 0.2339 -0.1979
vn -0.9527 0.2222 -0.2074
vn -0.6665 0.7350 -0.1247
vn -0.6626 0.7394 -0.1193
vn 0.1526 0.9834 0.0982
vn 0.1660 0.9793 0.1160
vn 0.5713 0.7918 0.2158
vn 0.5764 0.7785 0.2483
vn 0.9279 -0.1778 0.3277
vn 0.9652 -0.1313 0.2262
vn 0.7060 -0.6921 0.1501
vn 0.7178 -0.6836 0.1320
vn 0.2619 -0.9643 0.0383
vn 0.2553 -0.9660 0.0416
vn -0.6696 -0.7284 -0.1448
vn -0.6663 -0.7312 -0.1467
vn -0.9569 -0.2037 -0.2069
vn -0.9564 -0.2122 -0.2007
vn -0.7995 0.2641 -0.5396
vn -0.7890 0.2260 -0.5713
vn -0.6234 0.7012 -0.3460
vn -0.6115 0.7408 -0.2781
vn 0.0637 0.9257 0.3729
vn 0.0482 0.9466 0.3188
vn 0.4176 0.7142 0.5617
vn 0.4458 0.7653 0.4643
vn 0.8365 -0.1636 0.5230
vn 0.8245 -0.1720 0.5391
vn 0.6446 -0.6736 0.3616
vn 0.6090 -0.6916 0.3883
vn 0.2517 -0.9584 0.1345
vn 0.2209 -0.9656 0.1369
vn -0.6867 -0.5577 -0.4663
vn -0.4992 -0.7081 -0.4994
vn -0.7722 -0.3204 -0.5487
vn -0.7530 -0.2015 -0.6264
vn -0.4611 0.1114 -0.8803
vn -0.5233 0.2165 -0.8242
vn -0.3661 0.7007 -0.6123
vn -0.3596 0.6803 -0.6387
vn 0.1512 0.9706 0.1874
vn 0.0994 0.9312 0.3507
vn 0.2631 0.6970 0.6670
vn 0.2682 0.7003 0.6615
vn 0.5339 -0.1009 0.8395
vn 0.4373 -0.1461 0.8874
vn 0.3831 -0.6880 0.6164
vn 0.4061 -0.6793 0.6112
vn 0.0297 -0.9996 0.0006
vn 0.2894 -0.9525 0.0947
vn -0.3049 -0.6463 -0.6995
vn -0.4055 -0.5596 -0.7228
vn -0.4386 -0.2671 -0.8580
vn -0.4661 -0.3280 -0.8216
vn -0.1240 -0.0053 -0.9923
vn -0.1803 0.0783 -0.9805
vn -0.0211 0.7377 -0.6748
vn 0.0488 0.6296 -0.7754
vn 0.2826 0.9568 0.0678
vn 0.2135 0.9626 0.1668
vn 0.2919 0.7356 0.6113
vn 0.1581 0.6979 0.6986
vn 0.2739 -0.0976 0.9568
vn 0.2877 -0.0921 0.9533
vn 0.2482 -0.6413 0.7260
vn 0.1438 -0.6805 0.7185
vn -0.0132 -0.9992 -0.0384
vn 0.0302 -0.9995 0.0004
vn -0.1025 -0.7222 -0.6841
vn -0.1651 -0.6481 -0.7434
vn -0.1266 -0.1609 -0.9788
vn -0.1981 -0.2660 -0.9434
vn 0.0568 0.2498 -0.9666
vn 0.2419 -0.0166 -0.9702
vn 0.2050 0.6494 -0.7323
vn 0.1235 0.7267 -0.6758
vn -0.0014 0.9993 0.0386
vn -0.0523 0.9948 0.0877
vn -0.0895 0.8248 0.5583
vn -0.2695 0.7570 0.5952
vn -0.1370 -0.0721 0.9879
vn -0.1868 -0.0907 0.9782
vn -0.0600 -0.6167 0.7849
vn -0.1300 -0.6479 0.7505
vn -0.0100 -0.9796 0.2006
vn -0.1319 -0.9906 -0.0359
vn 0.0366 -0.6227 -0.7816
vn 0.0819 -0.7278 -0.6808
vn 0.0495 -0.2971 -0.9536
vn 0.1583 -0.1545 -0.9752
vn 0.6343 0.0349 -0.7723
vn 0.5000 0.2463 -0.8302
vn 0.3664 0.7046 -0.6076
vn 0.4612 0.6278 -0.6270
vn -0.0239 0.9971 0.0723
vn 0.0412 0.9978 0.0513
vn -0.2946 0.8424 0.4511
vn -0.3079 0.8392 0.4484
vn -0.6828 -0.0910 0.7249
vn -0.5936 -0.0460 0.8035
vn -0.4731 -0.6461 0.5990
vn -0.4470 -0.6307 0.6343
vn -0.1774 -0.9517 0.2506
vn -0.1867 -0.9738 0.1301
vn 0.3553 -0.7370 -0.5750
vn 0.3475 -0.6536 -0.6723
vn 0.6325 -0.0713 -0.7713
vn 0.4637 -0.3041 -0.8322
vn 0.8381 0.0537 -0.5428
vn 0.8492 0.0263 -0.5275
vn 0.5611 0.7496 -0.3510
vn 0.6442 0.6880 -0.3343
vn -0.0782 0.9923 0.0964
vn 0.0201 0.9937 0.1102
vn -0.5067 0.8029 0.3139
vn -0.3317 0.8464 0.4167
vn -0.9088 -0.1519 0.3885
vn -0.8197 -0.0801 0.5671
vn -0.6823 -0.6449 0.3445
vn -0.6722 -0.6314 0.3866
vn -0.2612 -0.9581 0.1177
vn -0.2736 -0.9490 0.1566
vn 0.5620 -0.7386 -0.3722
vn 0.5622 -0.7383 -0.3726
vn 0.8352 -0.0744 -0.5449
vn 0.8376 -0.0691 -0.5418
vn 0.9385 0.2236 -0.2631
vn 0.9884 0.0478 -0.1439
vn 0.6670 0.7389 -0.0953
vn 0.6674 0.7386 -0.0950
vn -0.1193 0.9926 0.0223
vn -0.1133 0.9932 0.0256
vn -0.5936 0.8022 0.0640
vn -0.6258 0.7798 0.0192
vn -0.9934 -0.1070 -0.0422
vn -0.9908 -0.1177 -0.0669
vn -0.7453 -0.6645 -0.0546
vn -0.7791 -0.6213 0.0831
vn -0.2746 -0.9613 0.0212
vn -0.2936 -0.9550 0.0430
vn 0.6605 -0.7421 -0.1139
vn 0.6664 -0.7357 -0.1210
vn 0.9406 -0.2101 -0.2668
vn 0.9820 -0.0729 -0.1745
vn 0.9534 0.2210 0.2054
vn 0.9535 0.2196 0.2064
vn 0.6792 0.7199 0.1433
vn 0.6730 0.7271 0.1354
vn -0.0959 0.9945 -0.0421
vn -0.1286 0.9888 -0.0760
vn -0.6071 0.7774 -0.1645
vn -0.5973 0.7903 -0.1364
vn -0.9943 -0.0098 -0.1063
vn -0.9580 -0.0939 -0.2709
vn -0.7559 -0.6310 -0.1745
vn -0.7390 -0.6425 -0.2029
vn -0.2738 -0.9597 -0.0639
vn -0.2780 -0.9586 -0.0618
vn 0.6432 -0.7495 0.1565
vn 0.6602 -0.7364 0.1476
vn 0.9534 -0.2197 0.2067
vn 0.9538 -0.2140 0.2110
vn 0.8016 0.2197 0.5560
vn 0.7990 0.2090 0.5639
vn 0.5599 0.7267 0.3980
vn 0.5708 0.6894 0.4461
vn -0.0850 0.9954 -0.0432
vn -0.0907 0.9938 -0.0645
vn -0.3918 0.8483 -0.3563
vn -0.2327 0.6116 -0.7561
vn -0.4911 -0.0456 -0.8699
vn -0.5983 0.0058 -0.8012
vn -0.5719 -0.6167 -0.5409
vn -0.6363 -0.5926 -0.4940
vn -0.2432 -0.9555 -0.1671
vn -0.2407 -0.9561 -0.1674
vn 0.5310 -0.7538 0.3870
vn 0.5506 -0.7407 0.3851
vn 0.8012 -0.2224 0.5555
vn 0.8003 -0.2185 0.5583
vn 0.5360 0.2226 0.8143
vn 0.5316 0.2139 0.8196
vn 0.3695 0.7312 0.5735
vn 0.3647 0.7115 0.6007
vn -0.0425 0.9975 -0.0572
vn -0.0342 0.9941 -0.1028
vn -0.2047 0.8681 -0.4523
vn -0.0373 0.7735 -0.6327
vn -0.2332 -0.1197 -0.9650
vn -0.4655 -0.0461 -0.8839
vn -0.3981 -0.6200 -0.6761
vn -0.4358 -0.6077 -0.6640
vn -0.1650 -0.9522 -0.2570
vn -0.1679 -0.9515 -0.2577
vn 0.3703 -0.7435 0.5568
vn 0.3698 -0.7439 0.5567
vn 0.5376 -0.2162 0.8150
vn 0.5386 -0.2183 0.8138
vn 0.1851 0.2222 0.9573
vn 0.1841 0.2207 0.9578
vn 0.1072 0.8194 0.5631
vn 0.0291 0.7105 0.7031
vn -0.1045 0.9910 0.0836
vn -0.0134 0.9975 -0.0693
vn -0.1083 0.8381 -0.5346
vn -0.2491 0.8647 -0.4361
vn -0.2053 -0.1329 -0.9696
vn -0.2401 -0.1195 -0.9634
vn -0.0930 -0.6387 -0.7638
vn -0.1253 -0.6280 -0.7680
vn -0.0254 -0.9565 -0.2905
vn -0.0520 -0.9492 -0.3104
vn 0.1335 -0.7358 0.6640
vn 0.1317 -0.7373 0.6626
vn 0.1870 -0.2125 0.9591
vn 0.1871 -0.2126 0.9591
vn -0.1926 0.2186 0.9566
vn -0.1901 0.2218 0.9564
vn -0.0882 0.8930 0.4414
vn -0.2084 0.8058 0.5542
vn -0.1237 0.9873 0.0998
vn -0.1053 0.9909 0.0836
vn -0.0020 0.7928 -0.6094
vn -0.2109 0.8203 -0.5316
vn -0.0134 -0.1076 -0.9941
vn 0.0741 -0.1472 -0.9863
vn 0.1224 -0.6274 -0.7690
vn 0.1576 -0.6426 -0.7498
vn 0.0751 -0.9583 -0.2758
vn 0.0662 -0.9541 -0.2919
vn -0.1295 -0.7314 0.6695
vn -0.1310 -0.7337 0.6668
vn -0.1913 -0.2117 0.9584
vn -0.1919 -0.2109 0.9585
vn -0.5432 0.2175 0.8110
vn -0.5425 0.2185 0.8112
vn -0.2594 0.8859 0.3845
vn -0.2430 0.8935 0.3776
vn -0.0614 0.9935 0.0957
vn -0.1010 0.9888 0.1097
vn 0.3253 0.7940 -0.5136
vn 0.2294 0.8199 -0.5245
vn 0.5589 -0.1447 -0.8165
vn 0.5158 -0.1234 -0.8477
vn 0.4554 -0.6457 -0.6129
vn 0.4349 -0.6339 -0.6395
vn 0.1658 -0.9593 -0.2285
vn 0.1650 -0.9572 -0.2377
vn -0.3771 -0.7306 0.5693
vn -0.3773 -0.7319 0.5674
vn -0.5429 -0.2121 0.8126
vn -0.5432 -0.2116 0.8125
vn -0.8117 0.2176 0.5420
vn -0.8119 0.2174 0.5419
vn -0.4133 0.8694 0.2708
vn -0.3747 0.8868 0.2707
vn -0.0560 0.9968 0.0570
vn -0.1023 0.9933 0.0542
vn 0.5460 0.7451 -0.3830
vn 0.3627 0.7980 -0.4813
vn 0.7722 -0.1215 -0.6236
vn 0.7824 -0.1278 -0.6096
vn 0.6406 -0.6438 -0.4185
vn 0.6399 -0.6425 -0.4215
vn 0.2287 -0.9642 -0.1342
vn 0.2345 -0.9603 -0.1514
vn -0.5654 -0.7307 0.3827
vn -0.5643 -0.7334 0.3791
vn -0.8122 -0.2129 0.5432
vn -0.8121 -0.2131 0.5433
vn -0.9575 0.2176 0.1892
vn -0.9571 0.2231 0.1850
vn -0.9585 -0.2139 0.1884
vn -0.9586 -0.2121 0.1897
vn -0.4863 0.8690 0.0918
vn -0.6445 0.7170 0.2656
vn -0.0115 0.9862 0.1653
vn 0.1689 0.9848 -0.0410
vn 0.6572 0.7454 -0.1120
vn 0.5935 0.8003 0.0856
vn 0.9957 -0.0701 0.0609
vn 0.9872 -0.1411 -0.0749
vn 0.7664 -0.6387 -0.0689
vn 0.7190 -0.6786 -0.1501
vn 0.2573 -0.9649 -0.0524
vn 0.2571 -0.9650 -0.0525
vn -0.6664 -0.7337 0.1328
vn -0.6690 -0.7316 0.1314
s 0
f 1//1 2//1 3//1
f 1//2 3//2 4//2
f 5//3 1//3 4//3
f 5//4 4//4 6//4
f 7//5 5//5 6//5
f 7//6 6//6 8//6
f 9//7 7//7 8//7
f 9//8 8//8 10//8
f 11//9 9//9 10//9
f 11//10 10//10 12//10
f 13//11 11//11 12//11
f 13//12 12//12 14//12
f 15//13 13//13 14//13
f 15//14 14//14 16//14
f 17//15 15//15 16//15
f 17//16 16//16 18//16
f 3//17 2//17 17//17
f 18//18 3//18 17//18
f 19//19 20//19 2//19
f 19//20 2//20 1//20
f 21//21 19//21 1//21
f 21//22 1//22 5//22
f 22//23 21//23 5//23
f 22//24 5//24 7//24
f 23//25 22//25 7//25
f 23//26 7//26 9//26
f 24//27 23//27 9//27
f 24//28 9//28 11//28
f 25//29 24//29 11//29
f 25//30 11//30 13//30
f 26//31 25//31 13//31
f 26//32 13//32 15//32
f 27//33 26//33 15//33
f 27//34 15//34 17//34
f 27//35 2//35 20//35
f 27//36 17//36 2//36
f 28//37 29//37 20//37
f 28//38 20//38 19//38
f 30//39 28//39 19//39
f 30//40 19//40 21//40
f 31//41 30//41 21//41
f 31//42 21//42 22//42
f 32//43 31//43 22//43
f 32//44 22//44 23//44
f 33//45 32//45 23//45
f 33//46 23//46 24//46
f 34//47 33//47 24//47
f 34//48 24//48 25//48
f 35//49 34//49 25//49
f 35//50 25//50 26//50
f 36//51 35//51 26//51
f 36//52 26//52 27//52
f 36//53 20//53 29//53
f 36//54 27//54 20//54
f 37//55 38//55 29//55
f 37//56 29//56 28//56
f 39//57 37//57 28//57
f 39//58 28//58 30//58
f 40//59 39//59 30//59
f 40//60 30//60 31//60
f 41//61 40//61 31//61
f 41//62 31//62 32//62
f 42//63 41//63 32//63
f 42//64 32//64 33//64
f 43//65 42//65 33//65
f 43//66 33//66 34//66
f 44//67 43//67 34//67
f 44//68 34//68 35//68
f 45//69 44//69 35//69
f 45//70 35//70 36//70
f 45//71 29//71 38//71
f 45//72 36//72 29//72
f 46//73 47//73 38//73
f 46//74 38//74 37//74
f 48//75 46//75 37//75
f 48//76 37//76 39//76
f 49//77 48//77 39//77
f 49//78 39//78 40//78
f 50//79 49//79 40//79
f 50//80 40//80 41//80
f 51//81 50//81 41//81
f 51//82 41//82 42//82
f 52//83 51//83 42//83
f 52//84 42//84 43//84
f 53//85 52//85 43//85
f 53//86 43//86 44//86
f 54//87 53//87 44//87
f 54//88 44//88 45//88
f 54//89 38//89 47//89
f 54//90 45//90 38//90
f 55//91 56//91 47//91
f 55//92 47//92 46//92
f 57//93 55//93 46//93
f 57//94 46//94 48//94
f 58//95 57//95 48//95
f 58//96 48//96 49//96
f 59//97 58//97 49//97
f 59//98 49//98 50//98
f 60//99 59//99 50//99
f 60//100 50//100 51//100
f 61//101 60//101 51//101
f 61//102 51//102 52//102
f 62//103 61//103 52//103
f 62//104 52//104 53//104
f 63//105 62//105 53//105
f 63//106 53//106 54//106
f 63//107 47//107 56//107
f 63//108 54//108 47//108
f 64//109 65//109 56//109
f 64//110 56//110 55//110
f 66//111 64//111 55//111
f 66//112 55//112 57//112
f 67//113 66//113 57//113
f 67//114 57//114 58//114
f 68//115 67//115 58//115
f 68//116 58//116 59//116
f 69//117 68//117 59//117
f 69//118 59//118 60//118
f 70//119 69//119 60//119
f 70//120 60//120 61//120
f 71//121 70//121 61//121
f 71//122 61//122 62//122
f 72//123 71//123 62//123
f 72//124 62//124 63//124
f 72//125 56//125 65//125
f 72//126 63//126 56//126
f 73//127 74//127 65//127
f 73//128 65//128 64//128
f 75//129 73//129 64//129
f 75//130 64//130 66//130
f 76//131 75//131 66//131
f 76//132 66//132 67//132
f 77//133 76//133 67//133
f 77//134 67//134 68//134
f 78//135 77//135 68//135
f 78//136 68//136 69//136
f 79//137 78//137 69//137
f 79//138 69//138 70//138
f 80//139 79//139 70//139
f 80//140 70//140 71//140
f 81//141 80//141 71//141
f 81//142 71//142 72//142
f 81//143 65//143 74//143
f 81//144 72//144 65//144
f 82//145 83//145 74//145
f 82//146 74//146 73//146
f 84//147 82//147 73//147
f 84//148 73//148 75//148
f 85//149 84//149 75//149
f 85//150 75//150 76//150
f 86//151 85//151 76//151
f 86//152 76//152 77//152
f 87//153 86//153 77//153
f 87//154 77//154 78//154
f 88//155 87//155 78//155
f 88//156 78//156 79//156
f 89//157 88//157 79//157
f 89//158 79//158 80//158
f 90//159 89//159 80//159
f 90//160 80//160 81//160
f 90//161 74//161 83//161
f 90//162 81//162 74//162
f 91//163 92//163 83//163
f 91//164 83//164 82//164
f 93//165 91//165 82//165
f 93//166 82//166 84//166
f 94//167 93//167 84//167
f 94//168 84//168 85//168
f 95//169 94//169 85//169
f 95//170 85//170 86//170
f 96//171 95//171 86//171
f 96//172 86//172 87//172
f 97//173 96//173 87//173
f 97//174 87//174 88//174
f 98//175 97//175 88//175
f 98//176 88//176 89//176
f 99//177 98//177 89//177
f 99//178 89//178 90//178
f 99//179 83//179 92//179
f 99//180 90//180 83//180
f 100//181 101//181 92//181
f 100//182 92//182 91//182
f 102//183 100//183 91//183
f 102//184 91//184 93//184
f 103//185 102//185 93//185
f 103//186 93//186 94//186
f 104//187 103//187 94//187
f 104//188 94//188 95//188
f 105//189 104//189 95//189
f 105//190 95//190 96//190
f 106//191 105//191 96//191
f 106//192 96//192 97//192
f 107//193 106//193 97//193
f 107//194 97//194 98//194
f 108//195 107//195 98//195
f 108//196 98//196 99//196
f 108//197 92//197 101//197
f 108//198 99//198 92//198
f 109//199 110//199 101//199
f 109//200 101//200 100//200
f 111//201 109//201 100//201
f 111//202 100//202 102//202
f 112//203 111//203 102//203
f 112//204 102//204 103//204
f 113//205 112//205 103//205
f 113//206 103//206 104//206
f 114//207 113//207 104//207
f 114//208 104//208 105//208
f 115//209 114//209 105//209
f 115//210 105//210 106//210
f 116//211 115//211 106//211
f 116//212 106//212 107//212
f 117//213 116//213 107//213
f 117//214 107//214 108//214
f 117//215 101//215 110//215
f 117//216 108//216 101//216
f 118//217 119//217 110//217
f 118//218 110//218 109//218
f 120//219 118//219 109//219
f 120//220 109//220 111//220
f 121//221 120//221 111//221
f 121//222 111//222 112//222
f 122//223 121//223 112//223
f 122//224 112//224 113//224
f 123//225 122//225 113//225
f 123//226 113//226 114//226
f 124//227 123//227 114//227
f 124//228 114//228 115//228
f 125//229 124//229 115//229
f 125//230 115//230 116//230
f 126//231 125//231 116//231
f 126//232 116//232 117//232
f 126//233 110//233 119//233
f 126//234 117//234 110//234
f 127//235 128//235 119//235
f 127//236 119//236 118//236
f 129//237 127//237 118//237
f 129//238 118//238 120//238
f 130//239 129//239 120//239
f 130//240 120//240 121//240
f 131//241 130//241 121//241
f 131//242 121//242 122//242
f 132//243 131//243 122//243
f 132//244 122//244 123//244
f 133//245 132//245 123//245
f 133//246 123//246 124//246
f 134//247 133//247 124//247
f 134//248 124//248 125//248
f 135//249 134//249 125//249
f 135//250 125//250 126//250
f 135//251 119//251 128//251
f 135//252 126//252 119//252
f 136//253 137//253 128//253
f 136//254 128//254 127//254
f 138//255 136//255 127//255
f 138//256 127//256 129//256
f 139//257 138//257 129//257
f 139//258 129//258 130//258
f 140//259 139//259 130//259
f 140//260 130//260 131//260
f 141//261 140//261 131//261
f 141//262 131//262 132//262
f 142//263 141//263 132//263
f 142//264 132//264 133//264
f 143//265 142//265 133//265
f 143//266 133//266 134//266
f 144//267 143//267 134//267
f 144//268 134//268 135//268
f 144//269 128//269 137//269
f 144//270 135//270 128//270
f 137//271 136//271 3//271
f 136//272 4//272 3//272
f 3//273 144//273 137//273
f 3//274 18//274 144//274
f 136//275 138//275 4//275
f 138//276 6//276 4//276
f 138//277 139//277 6//277
f 139//278 8//278 6//278
f 139//279 140//279 8//279
f 140//280 10//280 8//280
f 140//281 141//281 10//281
f 141//282 12//282 10//282
f 141//283 142//283 12//283
f 142//284 14//284 12//284
f 142//285 143//285 14//285
f 143//286 16//286 14//286
f 143//287 144//287 16//287
f 144//288 18//288 16//288
